<svg width="13" height="16" viewBox="0 0 13 16" fill="none" xmlns="http://www.w3.org/2000/svg">
<path d="M0.581822 12.6545H1.01819V6.47273C1.01819 3.90727 2.91455 1.78545 5.38182 1.43273V0.727273C5.38182 0.325455 5.70728 0 6.10909 0C6.51091 0 6.83637 0.325455 6.83637 0.727273V1.43273C9.30364 1.78545 11.2 3.90727 11.2 6.47273V12.6545H11.6364C11.9582 12.6545 12.2182 12.9145 12.2182 13.2364V13.8182C12.2182 13.8982 12.1527 13.9636 12.0727 13.9636H8.14546C8.14546 15.0873 7.23273 16 6.10909 16C4.98546 16 4.07273 15.0873 4.07273 13.9636H0.145458C0.0654583 13.9636 3.8147e-06 13.8982 3.8147e-06 13.8182V13.2364C3.8147e-06 12.9145 0.260004 12.6545 0.581822 12.6545ZM6.10909 14.8364C6.59091 14.8364 6.98182 14.4455 6.98182 13.9636H5.23637C5.23637 14.4455 5.62728 14.8364 6.10909 14.8364Z" fill="#8593F4"/>
</svg>
